<svg id="visual" viewBox="0 0 900 300" width="900" height="300" xmlns="http://www.w3.org/2000/svg" xmlns:xlink="http://www.w3.org/1999/xlink" version="1.1"><rect x="0" y="0" width="900" height="300" fill="#649bec"></rect><path d="M0 112L18.8 114.5C37.7 117 75.3 122 112.8 120.5C150.3 119 187.7 111 225.2 110.2C262.7 109.3 300.3 115.7 337.8 117.8C375.3 120 412.7 118 450.2 119.8C487.7 121.7 525.3 127.3 562.8 125.7C600.3 124 637.7 115 675.2 115.3C712.7 115.7 750.3 125.3 787.8 127.7C825.3 130 862.7 125 881.3 122.5L900 120L900 0L881.3 0C862.7 0 825.3 0 787.8 0C750.3 0 712.7 0 675.2 0C637.7 0 600.3 0 562.8 0C525.3 0 487.7 0 450.2 0C412.7 0 375.3 0 337.8 0C300.3 0 262.7 0 225.2 0C187.7 0 150.3 0 112.8 0C75.3 0 37.7 0 18.8 0L0 0Z" fill="#3077e1"></path><path d="M0 90L18.8 88.8C37.7 87.7 75.3 85.3 112.8 84.5C150.3 83.7 187.7 84.3 225.2 85.8C262.7 87.3 300.3 89.7 337.8 90.2C375.3 90.7 412.7 89.3 450.2 91.3C487.7 93.3 525.3 98.7 562.8 99.5C600.3 100.3 637.7 96.7 675.2 93.2C712.7 89.7 750.3 86.3 787.8 88C825.3 89.7 862.7 96.3 881.3 99.7L900 103L900 0L881.3 0C862.7 0 825.3 0 787.8 0C750.3 0 712.7 0 675.2 0C637.7 0 600.3 0 562.8 0C525.3 0 487.7 0 450.2 0C412.7 0 375.3 0 337.8 0C300.3 0 262.7 0 225.2 0C187.7 0 150.3 0 112.8 0C75.3 0 37.7 0 18.8 0L0 0Z" fill="#2463c7"></path><path d="M0 62L18.8 59C37.7 56 75.3 50 112.8 50.5C150.3 51 187.7 58 225.2 60.5C262.7 63 300.3 61 337.8 60.7C375.3 60.3 412.7 61.7 450.2 64.2C487.7 66.7 525.3 70.3 562.8 69.2C600.3 68 637.7 62 675.2 60.8C712.7 59.7 750.3 63.3 787.8 66.3C825.3 69.3 862.7 71.7 881.3 72.8L900 74L900 0L881.3 0C862.7 0 825.3 0 787.8 0C750.3 0 712.7 0 675.2 0C637.7 0 600.3 0 562.8 0C525.3 0 487.7 0 450.2 0C412.7 0 375.3 0 337.8 0C300.3 0 262.7 0 225.2 0C187.7 0 150.3 0 112.8 0C75.3 0 37.7 0 18.8 0L0 0Z" fill="#154fae"></path><path d="M0 21L18.8 25.2C37.7 29.3 75.3 37.7 112.8 37C150.3 36.3 187.7 26.7 225.2 24.5C262.7 22.3 300.3 27.7 337.8 32C375.3 36.3 412.7 39.7 450.2 37.7C487.7 35.7 525.3 28.3 562.8 28.2C600.3 28 637.7 35 675.2 38.3C712.7 41.7 750.3 41.3 787.8 38.5C825.3 35.7 862.7 30.3 881.3 27.7L900 25L900 0L881.3 0C862.7 0 825.3 0 787.8 0C750.3 0 712.7 0 675.2 0C637.7 0 600.3 0 562.8 0C525.3 0 487.7 0 450.2 0C412.7 0 375.3 0 337.8 0C300.3 0 262.7 0 225.2 0C187.7 0 150.3 0 112.8 0C75.3 0 37.7 0 18.8 0L0 0Z" fill="#003c95"></path></svg>