<svg id="visual" viewBox="0 0 900 150" width="900" height="150" xmlns="http://www.w3.org/2000/svg" xmlns:xlink="http://www.w3.org/1999/xlink" version="1.1"><rect x="0" y="0" width="900" height="150" fill="#649bec"></rect><path d="M0 50L21.5 49.3C43 48.7 86 47.3 128.8 47.2C171.7 47 214.3 48 257.2 47.5C300 47 343 45 385.8 43C428.7 41 471.3 39 514.2 40.8C557 42.7 600 48.3 642.8 49.8C685.7 51.3 728.3 48.7 771.2 48.2C814 47.7 857 49.3 878.5 50.2L900 51L900 0L878.5 0C857 0 814 0 771.2 0C728.3 0 685.7 0 642.8 0C600 0 557 0 514.2 0C471.3 0 428.7 0 385.8 0C343 0 300 0 257.2 0C214.3 0 171.7 0 128.8 0C86 0 43 0 21.5 0L0 0Z" fill="#0d5cd3"></path><path d="M0 43L21.5 42.7C43 42.3 86 41.7 128.8 41.8C171.7 42 214.3 43 257.2 42.3C300 41.7 343 39.3 385.8 38C428.7 36.7 471.3 36.3 514.2 35.3C557 34.3 600 32.7 642.8 34.7C685.7 36.7 728.3 42.3 771.2 43.3C814 44.3 857 40.7 878.5 38.8L900 37L900 0L878.5 0C857 0 814 0 771.2 0C728.3 0 685.7 0 642.8 0C600 0 557 0 514.2 0C471.3 0 428.7 0 385.8 0C343 0 300 0 257.2 0C214.3 0 171.7 0 128.8 0C86 0 43 0 21.5 0L0 0Z" fill="#0a51be"></path><path d="M0 37L21.5 34.3C43 31.7 86 26.3 128.8 24.5C171.7 22.7 214.3 24.3 257.2 25C300 25.7 343 25.3 385.8 27.5C428.7 29.7 471.3 34.3 514.2 34C557 33.7 600 28.3 642.8 27.3C685.7 26.3 728.3 29.7 771.2 31.3C814 33 857 33 878.5 33L900 33L900 0L878.5 0C857 0 814 0 771.2 0C728.3 0 685.7 0 642.8 0C600 0 557 0 514.2 0C471.3 0 428.7 0 385.8 0C343 0 300 0 257.2 0C214.3 0 171.7 0 128.8 0C86 0 43 0 21.5 0L0 0Z" fill="#0747a9"></path><path d="M0 20L21.5 20.2C43 20.3 86 20.7 128.8 21.3C171.7 22 214.3 23 257.2 23.5C300 24 343 24 385.8 23.2C428.7 22.3 471.3 20.7 514.2 19.2C557 17.7 600 16.3 642.8 17.8C685.7 19.3 728.3 23.7 771.2 24.2C814 24.7 857 21.3 878.5 19.7L900 18L900 0L878.5 0C857 0 814 0 771.2 0C728.3 0 685.7 0 642.8 0C600 0 557 0 514.2 0C471.3 0 428.7 0 385.8 0C343 0 300 0 257.2 0C214.3 0 171.7 0 128.8 0C86 0 43 0 21.5 0L0 0Z" fill="#043d94"></path><path d="M0 9L21.5 9.3C43 9.7 86 10.3 128.8 11.7C171.7 13 214.3 15 257.2 15.7C300 16.3 343 15.7 385.8 15C428.7 14.3 471.3 13.7 514.2 13.5C557 13.3 600 13.7 642.8 14.2C685.7 14.7 728.3 15.3 771.2 14.8C814 14.3 857 12.7 878.5 11.8L900 11L900 0L878.5 0C857 0 814 0 771.2 0C728.3 0 685.7 0 642.8 0C600 0 557 0 514.2 0C471.3 0 428.7 0 385.8 0C343 0 300 0 257.2 0C214.3 0 171.7 0 128.8 0C86 0 43 0 21.5 0L0 0Z" fill="#013380"></path></svg>